# xmcd
#
# Track frame offsets:
#	187
#	12742
#	24580
#	40887
#	54117
#	69535
#	85992
#	102557
#	121352
#	133117
#
# Disc length: 2004 seconds
#
# Revision: 3
# Processed by: cddbd v1.5.2PL0 Copyright (c) Steve Scherf et al.
# Submitted via: EZCDAudioConverter 7.1.5.1
#
DISCID=8807d20a
DTITLE=Robert Ellis Orrall - Flying Colors
DYEAR=1993
DGENRE=Country
TTITLE0=A Little Bit Of Her Love
TTITLE1=Boom!  It Was Over
TTITLE2=Every Day When I Get Home
TTITLE3=It's My Lucky Day
TTITLE4=I'm Learning As You Go
TTITLE5=True Believer
TTITLE6=What Would It Take
TTITLE7='Til The Tears Fell
TTITLE8=I'm Ready When You Are
TTITLE9=Flying Colors
EXTD=
EXTT0=
EXTT1=
EXTT2=
EXTT3=
EXTT4=
EXTT5=
EXTT6=
EXTT7=
EXTT8=
EXTT9=
PLAYORDER=
